<?xml version="1.0" encoding="UTF-8"?>
<svg id="Layer_1" xmlns="http://www.w3.org/2000/svg" version="1.1" viewBox="0 0 143 143">
  <defs>
    <style>
      .st0 {
        fill: #da0d16;
      }
      .st1 {
        fill: #fff;
      }
      .st2 {
        fill: #231e20;
      }
    </style>
  </defs>
  <rect class="st1" width="143" height="143"/>
  <g>
    <g>
      <path class="st2" d="M63.16,101.59v1.4h-2.36v6.49h-1.66v-6.49h-2.37v-1.4h6.38Z"/>
      <path class="st2" d="M63.99,101.59h1.67v4.84c0,.54.06.94.19,1.19.2.44.63.66,1.3.66s1.1-.22,1.29-.66c.13-.25.19-.64.19-1.19v-4.84h1.67v4.84c0,.84-.13,1.49-.39,1.96-.48.86-1.41,1.28-2.77,1.28s-2.29-.43-2.78-1.28c-.26-.47-.39-1.12-.39-1.96v-4.84ZM65.4,99.59h1.4v1.27h-1.4v-1.27ZM67.53,99.59h1.4v1.27h-1.4v-1.27Z"/>
      <path class="st2" d="M76.71,101.79c.29.12.54.31.74.55.17.2.3.42.4.66.1.24.15.52.15.83,0,.37-.09.74-.28,1.1s-.5.62-.94.77c.36.15.62.35.77.62.15.27.23.68.23,1.23v.53c0,.36.01.6.04.73.04.2.14.35.3.45v.2h-1.82c-.05-.17-.09-.32-.11-.42-.04-.22-.07-.45-.07-.68v-.73c-.02-.5-.1-.84-.27-1.01-.17-.17-.48-.25-.94-.25h-1.61v3.09h-1.61v-7.88h3.77c.54.01.95.08,1.24.2ZM73.3,102.96v2.12h1.77c.35,0,.62-.04.79-.13.31-.15.47-.45.47-.89,0-.48-.15-.8-.45-.96-.17-.09-.42-.14-.76-.14h-1.82Z"/>
      <path class="st2" d="M79.27,101.59h1.62v3.25l3.04-3.25h2.13l-3.23,3.24,3.4,4.64h-2.12l-2.43-3.44-.79.8v2.64h-1.62v-7.88Z"/>
    </g>
    <path class="st2" d="M34.69,113.15h3.07v6.15l5.77-6.15h4.03l-6.13,6.14,6.44,8.79h-4.01l-4.6-6.52-1.5,1.52v4.99h-3.07v-14.93Z"/>
    <path class="st2" d="M52.06,128.08h-3.1v-14.93h3.1v14.93Z"/>
    <path class="st2" d="M53.92,125.45l7.63-9.65h-7.44v-2.64h11.32v2.5l-7.73,9.8h7.75v2.63h-11.53v-2.63Z"/>
    <path class="st2" d="M70.49,128.08h-3.1v-14.93h3.1v14.93Z"/>
    <path class="st2" d="M72.58,113.15h3.12v12.25h7.46v2.68h-10.58v-14.93Z"/>
    <path class="st2" d="M89.11,113.15h3.53l5.28,14.93h-3.38l-.99-3.07h-5.5l-1.01,3.07h-3.26l5.33-14.93ZM88.9,122.44h3.82l-1.89-5.88-1.94,5.88Z"/>
    <path class="st2" d="M104.77,113.15h3.54l-4.99,9.33v5.6h-3.12v-5.6l-5.17-9.33h3.68l3.1,6.5,2.97-6.5Z"/>
    <path class="st0" d="M34.69,31.61c7.16-9.88,19.02-16.44,32.53-16.67,22.31-.39,40.7,16.6,41.08,37.94.37,21.34-17.41,38.96-39.72,39.34-13.97.24-26.39-6.32-33.83-16.5,5.94,4.75,13.82,7.58,22.41,7.43,18.16-.32,32.65-13.81,32.36-30.15-.29-16.34-15.24-29.32-33.4-29.01-8.25.14-15.73,3-21.43,7.61"/>
  </g>
</svg>
